<svg xmlns="http://www.w3.org/2000/svg" width="24" height="24" viewBox="0 0 24 24" fill="none" stroke="currentColor" stroke-width="1.75" stroke-linecap="round" stroke-linejoin="round">
  <!-- Body outline -->
  <path d="M5 14.5c0-1.2.6-2.2 1.5-3C7.8 10.5 8 9.5 8 8.5V5h8v3.5c0 1-.2 2 1.5 3 .9.8 1.5 1.8 1.5 3A5 5 0 0 1 12 19.5 5 5 0 0 1 5 14.5z"/>
  <!-- Sound hole -->
  <circle cx="12" cy="14.5" r="1.8"/>
  <!-- Strings -->
  <line x1="10" y1="5" x2="10" y2="8.2"/>
  <line x1="12" y1="5" x2="12" y2="8.2"/>
  <line x1="14" y1="5" x2="14" y2="8.2"/>
  <!-- Tuning pegs top -->
  <line x1="8" y1="5" x2="16" y2="5"/>
  <line x1="9" y1="3.5" x2="9" y2="5"/>
  <line x1="12" y1="3.5" x2="12" y2="5"/>
  <line x1="15" y1="3.5" x2="15" y2="5"/>
</svg>
